<svg xmlns="http://www.w3.org/2000/svg" width="271.354" height="272.939" viewBox="0 0 271.354 272.939"><g transform="translate(-60.121 -49.875)"><g transform="translate(65.272 49.875)"><path d="M314.161,152.292c-4.188-25.075-22.418-37.836-44.47-45.555C254.4,101.383,240.129,95.711,226.1,87.972c-15.268-8.424-28.355-20.161-43.887-28.267-13.154-6.872-28.179-11.629-43.677-9.176-12.348,1.959-24.2,8.431-34.278,16.847-23.543,19.653-37.849,50.691-36.833,79.9,1.057,30.5,17.667,56.818,39.015,76.017,13.174,11.853,28.565,21.469,45.677,27.067,15.031,4.913,76.688,8.532,109.9-8.593C293.1,225.72,319.738,185.736,314.161,152.292Z" transform="translate(-67.375 -49.875)" fill="#1170df"/><path d="M314.161,152.292c-4.188-25.075-22.418-37.836-44.47-45.555C254.4,101.383,240.129,95.711,226.1,87.972c-15.268-8.424-28.355-20.161-43.887-28.267-13.154-6.872-28.179-11.629-43.677-9.176-12.348,1.959-24.2,8.431-34.278,16.847-23.543,19.653-37.849,50.691-36.833,79.9,1.057,30.5,17.667,56.818,39.015,76.017,13.174,11.853,28.565,21.469,45.677,27.067,15.031,4.913,76.688,8.532,109.9-8.593C293.1,225.72,319.738,185.736,314.161,152.292Z" transform="translate(-67.375 -49.875)" fill="#fff" opacity="0.6"/></g><g transform="translate(105.815 235.702)"><line y1="52.501" x2="137.28" fill="none" stroke="#032b77" stroke-linecap="round" stroke-linejoin="round" stroke-width="1"/></g><g transform="translate(66.57 96.355)"><g transform="translate(0)"><path d="M123.525,156.281a16.576,16.576,0,1,1-7.184-31.581,17.1,17.1,0,0,0,7.184,31.581Z" transform="translate(-79.157 -120.471)" fill="#032b77"/><path d="M142.02,123.556l-.664-1.7-1.776-.42L141,120.283l-.156-1.823,1.538.989,1.687-.7-.468,1.762,1.193,1.382-1.823.108Z" transform="translate(-91.945 -118.46)" fill="#032b77"/><path d="M154.479,150.516l-.956.21-.373.9-.495-.847-.976-.068.651-.732-.23-.949.895.393.834-.515-.095.976Z" transform="translate(-95.845 -128.274)" fill="#032b77"/><path d="M107.939,190.146l-.956.21-.373.9-.495-.84-.976-.075.651-.732-.23-.949.895.393.834-.515-.095.976Z" transform="translate(-80.845 -141.047)" fill="#032b77"/><path d="M73.1,189.208l-1.4-1.952-2.406.047,1.423-1.938-.793-2.27,2.291.752,1.911-1.457-.007,2.406,1.972,1.376L73.8,186.9Z" transform="translate(-69.29 -139.065)" fill="#032b77"/></g></g><g transform="translate(252.997 264.833)"><path d="M354.06,386.273l1.383,20.121,30.937,19.5,33.288-21.754,5.577-18.555L383.2,372.15Z" transform="translate(-347.5 -368.704)" fill="#1170df"/><path d="M352.57,383.283l25.122-14.1,47.181,14.977-37.551,23.137Z" transform="translate(-347.02 -367.747)" fill="#fff" stroke="#032b77" stroke-linecap="round" stroke-linejoin="round" stroke-width="1"/><path d="M353.76,389.46l1.586,22.513,30.991,19.6,1.369-17.742" transform="translate(-347.403 -374.283)" fill="none" stroke="#032b77" stroke-linecap="round" stroke-linejoin="round" stroke-width="1"/><path d="M401.83,432.158l33.105-21.984,5.815-18.894" transform="translate(-362.896 -374.87)" fill="none" stroke="#032b77" stroke-linecap="round" stroke-linejoin="round" stroke-width="1"/><path d="M344.38,381.978,384.9,403.169l35.05-23.13s-41.055-12.707-41.848-12.971S344.38,381.978,344.38,381.978Z" transform="translate(-344.38 -367.065)" fill="#fff" stroke="#032b77" stroke-miterlimit="10" stroke-width="1"/><line y1="17.749" x2="26.749" transform="translate(38.73 13.456)" stroke-width="1" stroke="#032b77" stroke-linecap="round" stroke-linejoin="round" fill="none"/><line y1="17.742" x2="26.755" transform="translate(35.945 11.606)" stroke-width="1" stroke="#032b77" stroke-linecap="round" stroke-linejoin="round" fill="none"/><line y1="17.742" x2="26.749" transform="translate(31.845 10.413)" stroke-width="1" stroke="#032b77" stroke-linecap="round" stroke-linejoin="round" fill="none"/><line y1="17.742" x2="26.749" transform="translate(28.666 8.691)" stroke-width="1" stroke="#032b77" stroke-linecap="round" stroke-linejoin="round" fill="none"/><line x1="4.439" y1="2.867" transform="translate(22.737 36.49)" stroke-width="1" stroke="#032b77" stroke-linecap="round" stroke-linejoin="round" fill="none"/><line y1="4.744" x2="8.058" transform="translate(59.569 30.391)" stroke-width="1" stroke="#032b77" stroke-linecap="round" stroke-linejoin="round" fill="none"/><line y1="2.867" x2="5.117" transform="translate(54.751 39.804)" stroke-width="1" stroke="#032b77" stroke-linecap="round" stroke-linejoin="round" fill="none"/></g><g transform="translate(82.983 215.012)"><path d="M124.941,343.042H125l-5.828,3.388V331.894l2.4-1.681,7.631-5.184c13.866,0,16.265-12.558,16.265-12.558-17.051-.976-17.22,10.165-17.112,12.232l-9.183,6.425V319.844h.034s14.577-4.425-.237-26.294c0,0-15.675,20.67-.447,26.064v23.435L112.3,338.3c.108-2.318-.251-14.1-18.792-13.344,0,0,7.143,17.891,18.406,13.866l1.762,1.355,4.744,3.592a.325.325,0,0,0,.115.034V352l-9.955-.115L112.77,377.1l12.07-.359,3.931-24.607-9.6-.115V347.23l6.7-3.91c11.263,2.934,17.945-8.132,17.945-8.132C125.185,331.806,124.941,343.042,124.941,343.042Z" transform="translate(-93.51 -293.55)" fill="#032b77"/></g><g transform="translate(147.439 271.929)"><g transform="translate(0 0)"><path d="M213.193,412.386c0,2.264-5.5,4.1-12.287,4.1s-12.287-1.836-12.287-4.1,5.5-4.066,12.287-4.066S213.193,410.136,213.193,412.386Z" transform="translate(-188.62 -387.458)" fill="none" stroke="#032b77" stroke-linecap="round" stroke-linejoin="round" stroke-width="1"/><path d="M188.62,414.32s.454,8.342,2.426,13.5,10.525,6.926,15.174,4.859c3.449-1.532,5.191-6.208,6.1-10.45" transform="translate(-188.62 -389.392)" fill="none" stroke="#032b77" stroke-linecap="round" stroke-linejoin="round" stroke-width="1"/><path d="M217.823,430.158c.63,1.606,2.9,1.626,4.317,1.464a5.076,5.076,0,0,0,4.8-4.947,8.891,8.891,0,0,0-1.491-5.53,4.92,4.92,0,0,0-3.87-1.925,2.5,2.5,0,0,0-2.474,2.955,1.511,1.511,0,0,0,.366.786c.623.678,1.518.285,2.263.576a2.5,2.5,0,0,1,1.355,1.721,3.132,3.132,0,0,1-.244,2.941,2.135,2.135,0,0,1-2.033.718c-.678-.088-1.247-.678-1.952-.678a1.152,1.152,0,0,0-1.152,1.247,1.9,1.9,0,0,0,.115.671Z" transform="translate(-197.994 -390.971)" fill="#fff" stroke="#032b77" stroke-linecap="round" stroke-linejoin="round" stroke-width="1"/><ellipse cx="11.196" cy="2.853" rx="11.196" ry="2.853" transform="translate(1.152 23.132)" fill="#032b77"/><path d="M202.044,396.222a4.235,4.235,0,0,1-.176-2.338,5.413,5.413,0,0,1,2.609-3.1,24.4,24.4,0,0,0,3.5-2.25,3.762,3.762,0,0,0,1.355-3.693,15.389,15.389,0,0,0-1.172-2.182,3.782,3.782,0,0,1,.461-4.012,3.226,3.226,0,0,1,3.876-.739,2.812,2.812,0,0,1,1.078,3.687c-.434.759-1.227,1.24-1.728,1.959a3.131,3.131,0,0,0,0,3.443c.515.752,1.355,1.294,1.64,2.169a2.345,2.345,0,0,1-.922,2.4,4.859,4.859,0,0,1-2.541.861,13.116,13.116,0,0,0-2.711.359,4.175,4.175,0,0,0-2.033,6.587c.508.644.041.278-.759-.176A5.645,5.645,0,0,1,202.044,396.222Z" transform="translate(-192.861 -377.542)" fill="#032b77"/><path d="M202.053,396.209a4.174,4.174,0,0,1-.176-2.338,5.413,5.413,0,0,1,2.609-3.1,25.338,25.338,0,0,0,3.49-2.25,3.748,3.748,0,0,0,1.355-3.693,14.131,14.131,0,0,0-1.172-2.182,3.768,3.768,0,0,1,.468-4.012,3.206,3.206,0,0,1,3.876-.739,2.812,2.812,0,0,1,1.078,3.687c-.44.759-1.233,1.24-1.728,1.958a3.1,3.1,0,0,0,0,3.443c.515.752,1.355,1.294,1.633,2.169a2.331,2.331,0,0,1-.915,2.392,4.852,4.852,0,0,1-2.548.867,13.669,13.669,0,0,0-2.711.352,4.188,4.188,0,0,0-2.033,6.594c.515.644.041.278-.759-.183A5.625,5.625,0,0,1,202.053,396.209Z" transform="translate(-192.863 -377.537)" fill="#fff" opacity="0.7"/></g></g><g transform="translate(60.85 90.378)"><line y1="123.584" transform="translate(169.369 12.781)" stroke-width="1.05" stroke="#032b77" stroke-linecap="round" stroke-linejoin="round" fill="none"/><line y1="122.812" transform="translate(74.085)" stroke-width="1.05" stroke="#032b77" stroke-linecap="round" stroke-linejoin="round" fill="none"/><line x2="211.034" transform="translate(2.616 68.752)" stroke-width="1.021" stroke="#032b77" stroke-linecap="round" stroke-linejoin="round" fill="none"/><line x1="2.867" y2="1.938" transform="translate(96.809 43.671)" stroke-width="0.525" stroke="#032b77" stroke-linecap="round" stroke-linejoin="round" fill="none"/><line x1="44.497" y2="30.212" transform="translate(0 80.185)" stroke-width="1.05" stroke="#032b77" stroke-linecap="round" stroke-linejoin="round" fill="none"/><line x1="10.769" y2="7.306" transform="translate(28.91 75.963)" stroke-width="1.05" stroke="#032b77" stroke-linecap="round" stroke-linejoin="round" fill="none"/></g><g transform="translate(248.174 79.493)"><g transform="translate(0)"><circle cx="23.55" cy="23.55" r="23.55" transform="translate(0 46.479) rotate(-80.69)" fill="#032b77"/><circle cx="18.67" cy="18.67" r="18.67" transform="translate(8.366 8.377)" fill="#fff"/><path d="M377.978,132.742a1.579,1.579,0,1,1-1.572-1.572,1.579,1.579,0,0,1,1.572,1.572Z" transform="translate(-349.369 -105.695)" fill="#032b77"/><line y1="15.35" transform="translate(27.267 12.158)" stroke-width="1.137" stroke="#032b77" stroke-linecap="round" stroke-linejoin="round" fill="none"/><line x1="3.565" y1="11.914" transform="translate(23.465 14.896)" stroke-width="1.137" stroke="#032b77" stroke-linecap="round" stroke-linejoin="round" fill="none"/></g></g><g transform="translate(127.035 98.717)"><g transform="translate(0)"><path d="M180.041,325.216l-21.286-83.824a7.787,7.787,0,0,1,4.29-9c18.881-8.627,50.827-17.878,75.834-17.5a7.8,7.8,0,0,1,7.651,7.184l5.489,69.26a7.807,7.807,0,0,1-4.906,7.875Z" transform="translate(-158.512 -151.9)" fill="#032b77"/><path d="M180.041,325.216l-21.286-83.824a7.787,7.787,0,0,1,4.29-9c18.881-8.627,50.827-17.878,75.834-17.5a7.8,7.8,0,0,1,7.651,7.184l5.489,69.26a7.807,7.807,0,0,1-4.906,7.875Z" transform="translate(-158.512 -151.9)" opacity="0.5"/><path d="M261.088,401.921l38.168-16.177a2.033,2.033,0,0,0,.4-3.544l-15.031-10.843a2.08,2.08,0,0,0-1.925-.258l-39.015,14.78a2.033,2.033,0,0,0-.529,3.531l15.9,12.246a2.033,2.033,0,0,0,2.033.264Z" transform="translate(-185.533 -202.208)" fill="#032b77"/><path d="M288.366,378s12.2,1.748,13.622,8.41-25.7,6.906-28.077,1.9S284.32,378,288.366,378Z" transform="translate(-195.611 -204.474)" fill="#fff"/><path d="M275.945,374.346s-1.965-9.345-7.536-10.992-18.535.23-18.535.23L222.9,347.74,205.58,359.667l7.685,3.117-.061.095s1.261.481,3.3,1.22l4.5,1.83.2-.163c7.028,2.433,17.024,5.611,22.872,6.255,0,0,3.6,3.734,7.285,4.446a9.518,9.518,0,0,0,3.693.156,6.492,6.492,0,0,1,4.744.075c1.884.786,8.234,3.754,9.772,2.934s-.82-3.483-5.137-5.916c0,0,8.634,2.589,10.443,2.589s2.514-.312,2.433-.678Z" transform="translate(-173.682 -194.721)" fill="#fff"/><path d="M218.066,359.16l27.413,14.171a12.556,12.556,0,0,0,6.628,4.412,19.361,19.361,0,0,0,4.3.061,17.214,17.214,0,0,1,12.625,5.293,4.735,4.735,0,0,1-2.833-.474c-1.83-.759-6.58-4.066-10.6-2.345s-10.979-4.6-10.979-4.6-28.233-5.849-37.368-11.941Z" transform="translate(-174.22 -198.402)" fill="#1170df"/><path d="M218.066,359.16l27.413,14.171a12.556,12.556,0,0,0,6.628,4.412,19.361,19.361,0,0,0,4.3.061,17.214,17.214,0,0,1,12.625,5.293,4.735,4.735,0,0,1-2.833-.474c-1.83-.759-6.58-4.066-10.6-2.345s-10.979-4.6-10.979-4.6-28.233-5.849-37.368-11.941Z" transform="translate(-174.22 -198.402)" fill="#fff" opacity="0.5"/><path d="M289.31,382.4s12.788,4.744,14.455,3.558-5.333-5.083-12.951-7.7" transform="translate(-200.669 -204.558)" fill="none" stroke="#032b77" stroke-linecap="round" stroke-linejoin="round" stroke-width="1"/><path d="M297.05,374.7a16.136,16.136,0,0,1,6.94,4.581" transform="translate(-203.163 -203.41)" fill="none" stroke="#032b77" stroke-linecap="round" stroke-linejoin="round" stroke-width="1"/><path d="M282.648,373.242s-1.837-7.624-5.882-10.24-20.216-.176-20.216-.176L227.24,345.26" transform="translate(-180.663 -193.921)" fill="none" stroke="#032b77" stroke-linecap="round" stroke-linejoin="round" stroke-width="1"/><path d="M206.36,366c2.928,1.186,6.641,2.609,11.324,4.276,16.651,5.95,26.647,7.617,26.647,7.617s5.869,6.167,11.663,4.283c3.9-1.274,11.182,4.52,13.8,3.327s-3.917-5.74-12.009-9.311" transform="translate(-173.933 -200.606)" fill="none" stroke="#032b77" stroke-linecap="round" stroke-linejoin="round" stroke-width="1"/><path d="M322.233,294.654l17.329-19.829s-4.669-8.695-10.477-18.386-12.7-20.29-15.634-24.289c-8.173-3.992,3.389,45.134,3.389,45.134Z" transform="translate(-207.507 -157.391)" fill="#1170df"/><path d="M341.311,275.72c-7.387-16.075-26.471-43.82-26.471-43.82" transform="translate(-208.897 -157.385)" fill="none" stroke="#032b77" stroke-linecap="round" stroke-linejoin="round" stroke-width="1"/><path d="M217.194,285.108l15,28.016,47.872-18.63,1.83-22.228c2.711-18.84-3.524-43.623-3.524-43.623l-31.174-6.7s-44.728,15.323-45.405,18.223S217.194,285.108,217.194,285.108Z" transform="translate(-172.454 -154.175)" fill="#1170df"/><path d="M217.194,285.108l15,28.016,47.872-18.63,1.83-22.228c2.711-18.84-3.524-43.623-3.524-43.623l-31.174-6.7s-44.728,15.323-45.405,18.223S217.194,285.108,217.194,285.108Z" transform="translate(-172.454 -154.175)" fill="none" stroke="#032b77" stroke-miterlimit="10" stroke-width="1"/><path d="M207.916,252.3c1.145,2.44,6.777,15.106,8.81,18.3,2.711-22.994,1.769-25.522,3.836-26.728l9.623-5.611-5.028-3.07-.23-1.044S205.172,241.649,202,244.21C202,244.21,204.345,244.719,207.916,252.3Z" transform="translate(-172.528 -158.107)" opacity="0.2"/><path d="M341.338,279.823c2.094-1.22-4.8.84-6.953,1.959-1.755.908-3.653,2.148-5.55,1.593s-2.894-2.785-3.388-4.744c-1.559-6.1-1.667-12.47-3.009-18.616a85.347,85.347,0,0,0-4.127-12.734s3.029,18.942,1.071,33.851l4.818,16.786S323.806,290.083,341.338,279.823Z" transform="translate(-210.016 -162.342)" opacity="0.2"/><path d="M189.653,315.891a37.212,37.212,0,0,0,28.233-6.777s-.359-21.585-2.453-27.053c-2.711-7.028-14.862-34.474-17.471-33.085-1.85.983-5.666,30.747-7.455,50.42C189.782,307.556,189.4,314.034,189.653,315.891Z" transform="translate(-168.524 -162.872)" fill="#1170df"/><path d="M189.653,315.891a37.212,37.212,0,0,0,28.233-6.777s-.359-21.585-2.453-27.053c-2.711-7.028-14.862-34.474-17.471-33.085-1.85.983-5.666,30.747-7.455,50.42C189.782,307.556,189.4,314.034,189.653,315.891Z" transform="translate(-168.524 -162.872)" fill="none" stroke="#032b77" stroke-miterlimit="10" stroke-width="1"/><path d="M231.74,289.59a34.562,34.562,0,0,1,1.166,18.04" transform="translate(-182.114 -175.979)" fill="none" stroke="#032b77" stroke-linecap="round" stroke-linejoin="round" stroke-width="1"/><path d="M208.77,323.172a16.828,16.828,0,0,1,12.354,3.585" transform="translate(-174.71 -186.77)" fill="none" stroke="#032b77" stroke-linecap="round" stroke-linejoin="round" stroke-width="1"/><path d="M216.81,318.39a22.188,22.188,0,0,1,9.616,8.742" transform="translate(-177.301 -185.261)" fill="none" stroke="#032b77" stroke-linecap="round" stroke-linejoin="round" stroke-width="1"/><path d="M201.837,253.341c3.307,6.242,1.687,14.028,2.528,21.042.454,3.782.942,7.665,2.772,11.006,1.355,2.426,3.314,4.439,4.886,6.716a23.652,23.652,0,0,1,3.754,9.108c-4.208-4.242-8.81-8.695-14.679-9.786,2.792,1.423,6.675,4.69,5.679,5.72-1.952,1.843-4.358-2.419-6.37-1.22a4.3,4.3,0,0,0-1.62,2.446,20.331,20.331,0,0,0-.935,8.471l-8.973,4.141s5.422-57.312,8.864-62.016A11.134,11.134,0,0,1,201.837,253.341Z" transform="translate(-168.299 -162.887)" opacity="0.2"/><path d="M316.46,266a159.439,159.439,0,0,1,2.772,17.261" transform="translate(-209.419 -168.375)" fill="none" stroke="#032b77" stroke-linecap="round" stroke-linejoin="round" stroke-width="1"/><path d="M200.485,354.863s17.769-7.333,19.653-10.165-2.46-12.8-4.6-14.469-29.188,3.49-28.463,8.966,2.779,4.886,1.959,9.488C188.5,351.7,192.136,358.434,200.485,354.863Z" transform="translate(-167.713 -188.974)" fill="#fff"/><path d="M212.006,350.109c2.5-1.931-6.221,1.233-9.379,1.05a3.633,3.633,0,0,1-2.8-1.078,2.474,2.474,0,0,1-.169-2.352,5.347,5.347,0,0,1,1.5-1.911,19.416,19.416,0,0,1,5.876-3.388c.935-.359,2.474-.678,2.033-1.938-.895-1.355-3.388.034-4.954.718s-3.551,1.247-4.913.19a3.358,3.358,0,0,1-.773-3.876,7.394,7.394,0,0,1,2.819-3.083,2.969,2.969,0,0,0,1.064-1.023.922.922,0,0,0-.38-1.267s-12.876,3.517-13.8,6.831,1.538,7.685,1.538,7.685-1.532,5.489,2.372,8.424S206.212,354.6,212.006,350.109Z" transform="translate(-167.991 -189.696)" fill="#1170df"/><path d="M212.006,350.109c2.5-1.931-6.221,1.233-9.379,1.05a3.633,3.633,0,0,1-2.8-1.078,2.474,2.474,0,0,1-.169-2.352,5.347,5.347,0,0,1,1.5-1.911,19.416,19.416,0,0,1,5.876-3.388c.935-.359,2.474-.678,2.033-1.938-.895-1.355-3.388.034-4.954.718s-3.551,1.247-4.913.19a3.358,3.358,0,0,1-.773-3.876,7.394,7.394,0,0,1,2.819-3.083,2.969,2.969,0,0,0,1.064-1.023.922.922,0,0,0-.38-1.267s-12.876,3.517-13.8,6.831,1.538,7.685,1.538,7.685-1.3,5.469,2.6,8.424S206.212,354.6,212.006,350.109Z" transform="translate(-167.991 -189.696)" fill="#fff" opacity="0.7"/><path d="M200.868,354.863s17.776-7.333,19.653-10.165-2.453-12.8-4.595-14.469-29.2,3.49-28.463,8.966,2.779,4.886,1.965,9.488C188.886,351.7,192.519,358.434,200.868,354.863Z" transform="translate(-167.838 -188.974)" fill="none" stroke="#032b77" stroke-miterlimit="10" stroke-width="1"/><path d="M329.668,319.309c-.169-.142-.332-.285-.488-.44-4.513-4.4-1.654-9.949,2.033-13.8,3.388-3.551,9.433-8.959,14.53-9.569,2.3-.278,3.321,1,4.656,2.609.766.922,1.715,1.687,2.453,2.636a8.275,8.275,0,0,1-.3,10.294c-2.114,2.338-5.022,3.2-7.814,4.385-3.388,1.43-6.547,3.8-9.989,4.967A5.32,5.32,0,0,1,329.668,319.309Z" transform="translate(-212.773 -177.872)" fill="#fff"/><path d="M344.214,315.192c2.711-2.094,5.422-4.195,7.265-7.068a6.919,6.919,0,0,0,1.315-3.592,2.971,2.971,0,0,0-2.033-2.948,4.513,4.513,0,0,0-2.982.752l-2.833,1.477a1.646,1.646,0,0,1-1.1.271c-.542-.136-.786-.773-.82-1.355a7.518,7.518,0,0,1,1.62-4.29l1.545-2.426a.6.6,0,0,0-.745-.061,24.342,24.342,0,0,0-13.4,8.566c-5.422,7.048-5.876,9.488-4.114,12.808S332.821,324.049,344.214,315.192Z" transform="translate(-212.816 -177.997)" fill="#1170df"/><path d="M344.214,315.192c2.711-2.081,5.422-4.195,7.265-7.068a6.919,6.919,0,0,0,1.315-3.592,2.971,2.971,0,0,0-2.033-2.948,4.513,4.513,0,0,0-2.982.752l-2.833,1.477a1.646,1.646,0,0,1-1.1.271c-.542-.136-.786-.773-.82-1.355a7.518,7.518,0,0,1,1.62-4.29l1.545-2.426a.6.6,0,0,0-.745-.061,24.342,24.342,0,0,0-13.4,8.566c-5.422,7.048-5.876,9.488-4.114,12.808S332.957,323.846,344.214,315.192Z" transform="translate(-212.816 -177.997)" fill="#fff" opacity="0.7"/><path d="M329.668,319.309c-.169-.142-.332-.285-.488-.44-4.513-4.4-1.654-9.949,2.033-13.8,3.388-3.551,9.433-8.959,14.53-9.569,2.3-.278,3.321,1,4.656,2.609.766.922,1.715,1.687,2.453,2.636a8.275,8.275,0,0,1-.3,10.294c-2.114,2.338-5.022,3.2-7.814,4.385-3.388,1.43-6.547,3.8-9.989,4.967A5.32,5.32,0,0,1,329.668,319.309Z" transform="translate(-212.773 -177.872)" fill="none" stroke="#032b77" stroke-miterlimit="10" stroke-width="1"/><path d="M231.137,137.177a12.375,12.375,0,0,1,2.819-9.244,18.365,18.365,0,0,1,8.132-5.5" transform="translate(-181.897 -122.102)" fill="none" stroke="#032b77" stroke-linecap="round" stroke-linejoin="round" stroke-width="1"/><path d="M267.34,208.056c-.427,5.076-.59,17.037-.291,22.127L247.9,221.251c.678-4.6.928-12.964-.217-17.471l19.653,4.276" transform="translate(-187.251 -148.322)" fill="#fff"/><path d="M267.34,208.056c-.427,5.076-.59,17.037-.291,22.127L247.9,221.251c.678-4.6.928-12.964-.217-17.471l19.653,4.276" transform="translate(-187.251 -148.322)" fill="none" stroke="#032b77" stroke-miterlimit="10" stroke-width="1"/><path d="M249,208.09s5.666,10.518,11.616,10.714c5.815.183,7.116-8.478,7.116-8.478s-2.413,4.581-5.035,4.48S249,208.09,249,208.09Z" transform="translate(-187.677 -149.711)" fill="#032b77"/><path d="M266.507,143.248s-24.749-5.3-31.75,1.172S229.5,158.1,229.5,158.1l.637,2.081a2.332,2.332,0,0,0-.529.054c-1.864.44-3.754,2.711-3.131,5.957s4.595,10.376,7.522,9.616a3.693,3.693,0,0,0,.949-.386c.976,2.934,1.837,5.367,2.3,6.357,1.864,3.931,16.048,12.11,19.375,10.979s12.056-18.081,12.483-22.174S266.507,143.248,266.507,143.248Z" transform="translate(-180.38 -128.153)" fill="#fff"/><path d="M266.7,147.834c-3,3.178-7.949,3.571-12.246,2.785s-8.417-2.528-12.775-2.867a6.777,6.777,0,0,0-3.524.454,5.455,5.455,0,0,0-2.711,4.967,17.18,17.18,0,0,0,1.355,5.774,17.218,17.218,0,0,1,1.355,5.774c0,.922-.19,1.823-.224,2.711a31.344,31.344,0,0,0,1.952,11.236c2.907,8.1,10.389,11.365,17.891,14.232,0,0-2.711,2.243-8.065-.61-1.877-1-8.966-5.774-8.966-5.774a11.06,11.06,0,0,1-4.622-6.1l-1.355-4.256a3,3,0,0,1-4.019-.732c-1.945-2.189-4.859-6.2-4.615-9.359s.806-4.527,3.761-4.744a4.066,4.066,0,0,1,4.019,2.291L231.6,149.874s6.933-6.567,11.914-5.591,16.265,2.792,19.091,2.067a29.04,29.04,0,0,0,3.9-1.22Z" transform="translate(-180.302 -129.113)" fill="#1170df"/><path d="M266.7,147.85c-3,3.178-7.949,3.571-12.246,2.785s-8.417-2.528-12.775-2.867a6.777,6.777,0,0,0-3.524.454,5.455,5.455,0,0,0-2.711,4.967,17.18,17.18,0,0,0,1.355,5.774,17.219,17.219,0,0,1,1.355,5.774c0,.922-.19,1.823-.224,2.711a31.344,31.344,0,0,0,1.952,11.236c2.907,8.1,10.382,11.351,17.878,14.232,0,0-2.779,2.2-7.021-.169-1.857-1.037-10-6.2-10-6.2a11.06,11.06,0,0,1-4.622-6.1l-1.355-4.256a3,3,0,0,1-4.019-.732c-1.945-2.189-4.859-6.2-4.615-9.359s.515-4.188,3.47-4.385a4.744,4.744,0,0,1,4.31,1.952L231.6,149.924s6.933-6.567,11.914-5.591,16.265,2.792,19.091,2.067a29.04,29.04,0,0,0,3.9-1.22Z" transform="translate(-180.302 -129.13)" fill="#fff" opacity="0.5"/><path d="M264.765,175.975c0,1.186-.434,2.155-.969,2.155s-.976-.962-.976-2.155.434-2.148.969-2.155S264.765,174.8,264.765,175.975Z" transform="translate(-192.131 -138.665)" fill="#032b77"/><path d="M280.625,175.165c0,1.186-.434,2.155-.969,2.155s-.969-.969-.976-2.155.434-2.155.976-2.155S280.625,173.972,280.625,175.165Z" transform="translate(-197.243 -138.404)" fill="#032b77"/><path d="M274.371,198.9a4.125,4.125,0,0,1-5-.332" transform="translate(-194.242 -146.641)" fill="none" stroke="#032b77" stroke-linecap="round" stroke-linejoin="round" stroke-width="1"/><path d="M258.56,169.493c2-2.512,4.176-3.425,6.1-2.948" transform="translate(-190.758 -136.317)" fill="none" stroke="#032b77" stroke-linecap="round" stroke-linejoin="round" stroke-width="2"/><path d="M278.3,163.23c2.04.3,2.587,1.286,3.28,2.568" transform="translate(-197.12 -135.252)" fill="none" stroke="#032b77" stroke-linecap="round" stroke-linejoin="round" stroke-width="2"/><path d="M272.8,174.57q.291,2.1.6,4.208a5.834,5.834,0,0,0,.434,1.769,3.05,3.05,0,0,0,2.643,1.687,1.81,1.81,0,0,1,.956.136.922.922,0,0,1,.386.834,2.325,2.325,0,0,1-.745,1.423,9.868,9.868,0,0,1-2.365,1.9" transform="translate(-195.347 -138.907)" fill="none" stroke="#032b77" stroke-linecap="round" stroke-linejoin="round" stroke-width="1"/><path d="M231.14,175.59a8.4,8.4,0,0,1,2.928,7.685" transform="translate(-181.92 -139.236)" fill="none" stroke="#032b77" stroke-linecap="round" stroke-linejoin="round" stroke-width="1"/><path d="M230.55,180.508a1.057,1.057,0,0,1,.773-.6,2.419,2.419,0,0,1,1.01,0,2.195,2.195,0,0,1,.678.224,1.355,1.355,0,0,1,.556.725" transform="translate(-181.73 -140.609)" fill="none" stroke="#032b77" stroke-linecap="round" stroke-linejoin="round" stroke-width="1"/><path d="M235.8,179.865s1.477,4.229-2.182,5.171c-2.921.759-6.892-6.364-7.522-9.616a5.422,5.422,0,0,1,1.118-4.7,3.9,3.9,0,0,1,2.033-1.254c2.162-.515,4.317,2.108,5.679,4.263a19.284,19.284,0,0,0,1.355,1.979" transform="translate(-180.248 -137.242)" fill="none" stroke="#032b77" stroke-linecap="round" stroke-linejoin="round" stroke-width="1"/><path d="M235.986,175.619c.976,2.948,1.83,5.374,2.3,6.364,1.864,3.937,16.048,12.11,19.375,10.979s12.056-18.081,12.49-22.174-2.589-27.338-2.589-27.338-24.749-5.3-31.75,1.172-5.279,13.683-5.279,13.683" transform="translate(-181.664 -128.218)" fill="none" stroke="#032b77" stroke-miterlimit="10" stroke-width="1"/><path d="M285.931,127.74s3.822,7.956-1.057,13.371-16.034.956-16.034.956" transform="translate(-194.071 -123.813)" fill="none" stroke="#032b77" stroke-linecap="round" stroke-linejoin="round" stroke-width="1"/><path d="M266.245,122.322c-1.545.63,1.1,3.341-2.2,4.175s-29.439-11.3-36.019,9.84c0,0-11.717,8.322-2.033,19.165a3.9,3.9,0,0,1,2.033-1.254c2.1-.495,4.188,1.959,5.557,4.066.61,1.762,1.565,3.341,3.023,2.806,2.657-.962,1.762-4.29.678-6.723-.346-.773-.718-1.45-1-1.938-1.667-2.9-4.134-6.1-3.009-9.616,2.25-4.222,9.088-4.886,15.587-3.226,10.762,2.745,23.353-1.186,23.157-8.939S267.79,121.692,266.245,122.322Z" transform="translate(-179.027 -122.021)" fill="#032b77"/><path d="M269.359,125.73a.407.407,0,0,0-.061-.088c-1.315-3.314-3.748-3.856-4.873-3.388-1.545.63,1.1,3.341-2.2,4.175s-28.206-10.728-35.511,8.4a12.442,12.442,0,0,1,2.8-6.838,18.006,18.006,0,0,1,7.976-5.422.325.325,0,0,0-.217-.61,18.616,18.616,0,0,0-8.234,5.618,12.876,12.876,0,0,0-2.982,8.261,12.449,12.449,0,0,0-9.535,9.433.325.325,0,0,0,.244.386h.068a.325.325,0,0,0,.319-.251,11.833,11.833,0,0,1,8.729-8.878c-1.87,1.5-10.355,9.183-1.687,18.894a3.9,3.9,0,0,1,2.033-1.254c2.1-.495,4.188,1.959,5.557,4.066.61,1.762,1.565,3.341,3.022,2.806,2.657-.962,1.762-4.29.678-6.723-.346-.773-.718-1.45-1-1.938-1.667-2.9-4.134-6.1-3.009-9.616,2.25-4.222,9.088-4.886,15.587-3.226a28.009,28.009,0,0,0,4.663.773.359.359,0,0,0,.176.183,27.109,27.109,0,0,0,8.864,1.762c2.765,0,5.6-.678,7.529-2.806C273.215,133.951,269.4,125.812,269.359,125.73Zm-1.593,13.3c-3.626,4.025-10.985,2.358-14.157,1.355,8.275.129,15.905-3.246,16.522-8.891A9.949,9.949,0,0,1,267.767,139.027Z" transform="translate(-177.208 -121.946)" opacity="0.5"/><path d="M236.39,144.128c1.728-3.253,5.611-4.852,9.291-4.995s7.285.908,10.843,1.7,7.407,1.355,10.911.2,6.56-4.4,6.33-8.071" transform="translate(-183.612 -125.496)" fill="none" stroke="#fff" stroke-linecap="round" stroke-linejoin="round" stroke-width="0.5"/><path d="M235.35,141.381c.617-2.426,2.541-4.31,4.608-5.727a23.787,23.787,0,0,1,10.626-3.985" transform="translate(-183.277 -125.08)" fill="none" stroke="#fff" stroke-linecap="round" stroke-linejoin="round" stroke-width="0.5"/><path d="M264.208,239.38c.271-.271,7.854-1.66,7.854-1.66s-1.294,8.966-.678,12.2l-3.138.556s-3.05-5.638-5.455-7.394S264.208,239.38,264.208,239.38Z" transform="translate(-191.866 -159.261)" fill="#032b77"/><path d="M271.9,253.947,271.947,292l8.58,6.486,3.646-9.176L273.621,253.12Z" transform="translate(-195.057 -164.224)" fill="#032b77"/><path d="M271.424,228.2l4.195-5.591a.678.678,0,0,1,1.064-.081l5.361,5.361a.678.678,0,0,1,.115.847l-6.438,11.48a.678.678,0,0,1-1.294-.163l-3.117-11.243a.725.725,0,0,1,.115-.61Z" transform="translate(-194.859 -154.292)" fill="#fff"/><path d="M271.424,228.2l4.195-5.591a.678.678,0,0,1,1.064-.081l5.361,5.361a.678.678,0,0,1,.115.847l-6.438,11.48a.678.678,0,0,1-1.294-.163l-3.117-11.243a.725.725,0,0,1,.115-.61Z" transform="translate(-194.859 -154.292)" fill="none" stroke="#032b77" stroke-linecap="round" stroke-linejoin="round" stroke-width="1"/><path d="M242.79,221.435l16.265,6.479a.678.678,0,0,1,.407.895l-4.175,11.805a.678.678,0,0,1-1,.386l-18.3-9.928a.678.678,0,0,1-.23-1.044l6.214-8.356a.678.678,0,0,1,.82-.237Z" transform="translate(-183.358 -153.995)" fill="#fff"/><path d="M242.79,221.435l16.265,6.479a.678.678,0,0,1,.407.895l-4.175,11.805a.678.678,0,0,1-1,.386l-18.3-9.928a.678.678,0,0,1-.23-1.044l6.214-8.356a.678.678,0,0,1,.82-.237Z" transform="translate(-183.358 -153.995)" fill="none" stroke="#032b77" stroke-linecap="round" stroke-linejoin="round" stroke-width="1"/><line x1="4.812" y1="16" transform="translate(109.236 119.758)" fill="none" stroke="#032b77" stroke-miterlimit="10" stroke-width="1"/><path d="M325.013,330.37l-33.207,13.947a2.033,2.033,0,0,0-.332,3.551l25.637,17.044,16.678-16.651Z" transform="translate(-201.078 -189.122)" fill="#fff" stroke="#032b77" stroke-miterlimit="10" stroke-width="1"/><path d="M315.443,348.377l-3.992,1.565,2.141,1.511,4-1.565Zm0,0-3.992,1.565,2.141,1.511,4-1.565Zm0,0-3.992,1.565,2.141,1.511,4-1.565Zm2.711,1.918-4,1.559,2.324,1.64,4.005-1.565Zm0,0-4,1.559,2.324,1.64,4.005-1.565Zm0,0-4,1.559,2.324,1.64,4.005-1.565Zm0,0-4,1.559,2.324,1.64,4.005-1.565Zm0,0-4,1.559,2.324,1.64,4.005-1.565Zm0,0-4,1.559,2.324,1.64,4.005-1.565Zm0,0-4,1.559,2.324,1.64,4.005-1.565Zm-8.959,3.5,2.365,1.62,4.263-1.667-2.324-1.633Zm8.959-3.483-4,1.559,2.324,1.64,4.005-1.565Zm0,0-4,1.559,2.324,1.64,4.005-1.565Zm0,0-4,1.559,2.324,1.64,4.005-1.565Zm0,0-4,1.559,2.324,1.64,4.005-1.565Zm0,0-4,1.559,2.324,1.64,4.005-1.565Zm0,0-4,1.559,2.324,1.64,4.005-1.565Zm2.9,2.033-4,1.565,2.663,1.87,4-1.565Zm.678-.258,2.67,1.877.19-.081.745-3.2Zm-.569-.4-.678.258.569.4.678-.258Zm-.081.678-4,1.565,2.663,1.87,4-1.566Zm0,0-4,1.565,2.663,1.87,4-1.566Zm0,0-4,1.565,2.663,1.87,4-1.566Zm3.9-2.155.407.285.115-.481Zm-3.822,1.5-.678.258.569.4.678-.258Zm1.5-3.131-3.829,1.477,2.325,1.633,3.822-1.5Zm-1.5,3.131-.678.258.569.4.678-.258Zm-.081.678-4,1.565,2.663,1.87,4-1.565Zm.081-.678-.678.258.569.4.678-.258Zm-.081.678-4,1.565,2.663,1.87,4-1.565Zm0,0-4,1.565,2.663,1.87,4-1.565Zm.678-.258,2.67,1.877-.678.251.576.4-4.005,1.572-.569-.407-.678.258.576.4-4.208,1.6,2.033,1.41,4.154-1.626.583.407-4.127,1.626,2.711,1.864,1.647,1.125.447-1.945.44-1.877.142-.6.169-.745.163-.678.542-2.331V354.6l.122-.5.041-.19.745-3.2Zm-.678.258-4,1.565,2.663,1.87,4-1.565Zm.081-.678-.678.258.569.4.678-.258Zm-.081.678-4,1.565,2.663,1.87,4-1.565Zm.081-.678-.678.258.569.4.678-.258Zm-.081.678-4,1.565,2.663,1.87,4-1.565Zm.081-.678-.678.258.569.4.678-.258Zm-.081.678-4,1.565,2.663,1.87,4-1.565Zm.081-.678-.678.258.569.4.678-.258Zm2.148-3.388,2.216,1.559.624-2.67Zm-3.388-1.66-3.829,1.5-.569-.407,3.822-1.491.576.4.678-.258-.576-.4,4.066-1.579-2.033-1.444-4.032,1.593-.678.251-3.856,1.518-.678.258-3.985,1.572-.678.258-4.391,1.728,2.033,1.389,4.358-1.708.576.407-4.351,1.7,2.182,1.491,4.317-1.681.569.4.678-.258-.569-.4,4-1.565.569.407.678-.258-.576-.407,3.822-1.5Zm-8.471,3.314-.583-.4,4.005-1.565.569.4Zm13.249-5.808-.678.258.576.4.678-.258Zm.569.4,1.274.895.346-1.525Zm-2.623-1.843,2.033,1.444,2.352-.922.583-2.487Zm-1.5,8.979-.678.258.569.4.678-.258Zm.922-3.538-2.142-1.5-3.829,1.5-.678.251,2.148,1.511.569.407.678-.258-.576-.407Zm.576.407-3.809,1.484,2.325,1.633,3.822-1.5Zm3.754-2.5-1.769-1.247-4.066,1.579,2.142,1.511-.644.251.569.407.678-.251-.569-.407,3.571-1.4Zm-5.252,5.632,3.822-1.5-2.324-1.633-3.809,1.484Zm.922-3.538-2.142-1.5-3.829,1.5-.678.251,2.148,1.511.569.407.678-.258-.576-.407Zm-1,4.195-4,1.565,2.663,1.87,4-1.565Zm0,0-4,1.565,2.663,1.87,4-1.565Zm-2.9-2.033-4,1.559,2.324,1.64,4.005-1.565Zm-1.742,3.849-4.276,1.654,2.711,1.85,4.2-1.64Zm.068-.678-.678.251.583.4.644-.251Zm4.574-1.166-4,1.565,2.663,1.87,4-1.565Zm.678-.258,2.67,1.877.19-.081.745-3.2Zm-.569-.4-.678.258.569.4.678-.258Zm-5.727-3.3-3.992,1.565,2.141,1.511,4-1.565Zm0,0-3.992,1.565,2.141,1.511,4-1.565Zm0,0-3.992,1.565,2.141,1.511,4-1.565Z" transform="translate(-205.326 -192.471)" fill="#032b77"/><path d="M329.77,350.885l9.129-39.9a4.805,4.805,0,0,1,2.819-3.355l49.038-20.676a1.315,1.315,0,0,1,1.769,1.586L380.753,328.25Z" transform="translate(-213.709 -175.095)" fill="#1170df" stroke="#032b77" stroke-miterlimit="10" stroke-width="1"/><path d="M381.733,326.929c1.4.806,1.7,2.914.678,4.7s-3.009,2.582-4.412,1.776-1.7-2.914-.678-4.7S380.33,326.115,381.733,326.929Z" transform="translate(-228.839 -187.911)" fill="#032b77"/></g></g></g></svg>